<svg fill="#555" height="17" viewBox="0 0 18 17" width="18" xmlns="http://www.w3.org/2000/svg"><path d="m2.53018 16.776h5.63387v-5.9634h-2.02414v-1.9659h2.02414v-2.45742c0-1.35503 1.13503-2.45741 2.53015-2.45741h2.5302v1.96593h-2.0241c-.5581 0-1.0121.44093-1.0121.98296v1.96594h2.9449l-.3374 1.9659h-2.6075v5.9634h4.5543c1.3952 0 2.5302-1.1024 2.5302-2.4575v-11.86108c0-1.35504-1.135-2.45742-2.5302-2.45742h-12.21232c-1.39516 0-2.53018 1.10238-2.53018 2.45742v11.86108c0 1.3551 1.13502 2.4575 2.53018 2.4575zm-1.51811-14.31858c0-.813.68104-1.474454 1.51811-1.474454h12.21232c.8371 0 1.5181.661454 1.5181 1.474454v11.86108c0 .813-.681 1.4745-1.5181 1.4745h-3.5422v-3.9974h2.4528l.6747-3.93187h-3.1275v-.98297h3.0362v-3.93186h-3.5423c-1.95321 0-3.54222 1.54331-3.54222 3.44038v1.47445h-2.02415v3.93187h2.02415v3.9974h-4.6218c-.83707 0-1.51811-.6615-1.51811-1.4745z" fill="#fff"/></svg>